<svg width="102" height="100" viewBox="0 0 102 100" fill="none" xmlns="http://www.w3.org/2000/svg">
<path opacity="0.05" d="M15.5246 75.861C15.5246 79.267 16.2233 81.7123 17.6206 83.197C19.1053 84.5943 21.0266 85.293 23.3846 85.293C25.8299 85.293 27.7513 84.5943 29.1486 83.197C30.5459 81.7123 31.2446 79.267 31.2446 75.861V23.854C31.2446 20.3607 30.5459 17.9153 29.1486 16.518C27.7513 15.0333 25.8299 14.291 23.3846 14.291C21.0266 14.291 19.1053 15.0333 17.6206 16.518C16.2233 17.9153 15.5246 20.3607 15.5246 23.854V75.861ZM0.459586 24.771C0.459586 16.9983 2.42459 11.016 6.35459 6.82399C10.2846 2.632 15.9613 0.535998 23.3846 0.535998C30.8953 0.535998 36.6156 2.632 40.5456 6.82399C44.4756 11.016 46.4406 16.9983 46.4406 24.771V74.813C46.4406 82.5857 44.4756 88.568 40.5456 92.76C36.6156 96.952 30.8953 99.048 23.3846 99.048C15.9613 99.048 10.2846 96.952 6.35459 92.76C2.42459 88.568 0.459586 82.5857 0.459586 74.813V24.771ZM58.86 82.804C60.17 83.2407 61.6547 83.6337 63.314 83.983C64.9733 84.245 66.6763 84.507 68.423 84.769C70.1697 84.9437 71.9163 85.0747 73.663 85.162C75.4097 85.2493 77.069 85.2493 78.641 85.162C81.1737 84.9873 83.1387 84.114 84.536 82.542C86.0207 80.97 86.763 78.0443 86.763 73.765V66.822C86.763 62.368 85.7587 59.224 83.75 57.39C81.7413 55.556 78.9903 54.639 75.497 54.639H69.864V40.884H76.283C79.165 40.884 81.5667 40.1417 83.488 38.657C85.4967 37.1723 86.501 34.5087 86.501 30.666V25.295C86.501 23.1117 86.239 21.3213 85.715 19.924C85.2783 18.5267 84.6233 17.435 83.75 16.649C82.8767 15.7757 81.8723 15.1643 80.737 14.815C79.689 14.4657 78.5537 14.291 77.331 14.291C74.711 14.2037 71.9163 14.291 68.947 14.553C65.9777 14.815 63.0957 15.2953 60.301 15.994L57.681 3.025C60.7377 2.239 64.1 1.62766 67.768 1.191C71.436 0.754331 75.0603 0.535998 78.641 0.535998C86.8503 0.535998 92.7453 2.54466 96.326 6.562C99.9067 10.492 101.697 16.3433 101.697 24.116V27.915C101.697 33.155 100.824 37.4343 99.077 40.753C97.4177 43.9843 94.754 46.0367 91.086 46.91V47.172C94.9287 48.1327 97.6797 50.4033 99.339 53.984C101.086 57.4773 101.959 61.6693 101.959 66.56V74.944C101.959 91.0133 94.0553 99.048 78.248 99.048C69.2527 99.048 61.742 98.0437 55.716 96.035L58.86 82.804Z" fill="#1D1C1F"/>
</svg>
